<svg width="99" height="28" viewBox="0 0 99 28" fill="none" xmlns="http://www.w3.org/2000/svg">
<path d="M90.3295 10.4099C92.4969 10.4099 94.9056 10.5761 96.531 11.625C97.0513 11.9607 97.4631 12.3763 97.7954 12.9009C98.8348 14.5416 99 16.9719 99 19.1595C99 21.3467 98.8348 23.7773 97.7954 25.4176C97.4631 25.9427 97.0513 26.3582 96.531 26.6935C94.9056 27.7424 92.4969 27.9091 90.3295 27.9091C88.1617 27.9091 85.7535 27.7424 84.1276 26.6935C83.6077 26.3582 83.1955 25.9427 82.8632 25.4176C81.8238 23.7773 81.6591 21.3467 81.6591 19.1595C81.6591 16.9719 81.8238 14.5416 82.8632 12.9009C83.1955 12.3763 83.6077 11.9607 84.1276 11.625C85.7535 10.5761 88.1617 10.4099 90.3295 10.4099Z" fill="black"/>
<path d="M90.3295 10.4099C92.4969 10.4099 94.9056 10.5761 96.531 11.625C97.0513 11.9607 97.4631 12.3763 97.7954 12.9009C98.8348 14.5416 99 16.9719 99 19.1595C99 21.3467 98.8348 23.7773 97.7954 25.4176C97.4631 25.9427 97.0513 26.3582 96.531 26.6935C94.9056 27.7424 92.4969 27.9091 90.3295 27.9091C88.1617 27.9091 85.7535 27.7424 84.1276 26.6935C83.6077 26.3582 83.1955 25.9427 82.8632 25.4176C81.8238 23.7773 81.6591 21.3467 81.6591 19.1595C81.6591 16.9719 81.8238 14.5416 82.8632 12.9009C83.1955 12.3763 83.6077 11.9607 84.1276 11.625C85.7535 10.5761 88.1617 10.4099 90.3295 10.4099Z" fill="#2574FF"/>
<path opacity="0.2" fill-rule="evenodd" clip-rule="evenodd" d="M98.3497 14.0535C98.6051 14.7603 98.7635 15.5431 98.86 16.3519L90.2886 23.261H89.9363L89.923 22.3997L98.3497 14.0535Z" fill="#272755"/>
<path fill-rule="evenodd" clip-rule="evenodd" d="M98.8373 14.0052L97.3062 12.4741C97.1032 12.2692 96.7647 12.2692 96.5476 12.4741L90.0042 19.2963L87.173 16.4799C86.9696 16.2747 86.631 16.2747 86.4143 16.4799L85.0592 17.8335C84.8562 18.0384 84.8562 18.38 85.0592 18.5853L89.5841 23.1103C89.7064 23.2333 89.869 23.2745 90.0312 23.2606C90.1938 23.2745 90.3565 23.2333 90.4783 23.1103L98.8373 14.7708C99.0406 14.5521 99.0406 14.2105 98.8373 14.0052Z" fill="white"/>
<path fill-rule="evenodd" clip-rule="evenodd" d="M90.4785 23.1104L98.8374 14.7708C99.0407 14.566 99.0407 14.2243 98.8374 14.0191L98.5936 13.7866L90.018 22.2902L85.2765 17.6283L85.0731 17.8336C84.8697 18.0384 84.8697 18.38 85.0731 18.5853L89.5979 23.1104C89.7198 23.2338 89.8824 23.2745 90.0451 23.261C90.194 23.2745 90.3566 23.2333 90.4785 23.1104Z" fill="#F5F5F5"/>
<path d="M72.8016 26.3293C73.0462 26.4191 73.2987 26.412 73.5582 26.3075C73.8119 26.1916 73.9858 26.0158 74.0794 25.7807C74.1734 25.5457 74.1655 25.3035 74.0569 25.0537L69.0807 14.5278C69.0084 14.383 68.9085 14.258 68.7817 14.1539C68.7334 14.1132 68.6819 14.0754 68.6274 14.0405H68.6095C68.5912 14.0288 68.57 14.0175 68.5459 14.0057C68.5459 14.0057 68.5429 14.0028 68.5367 13.9969H68.528C68.5217 13.9969 68.5188 13.994 68.5188 13.9881C68.4947 13.9826 68.4672 13.9738 68.4373 13.9621H68.4281C68.3375 13.9331 68.241 13.9188 68.1382 13.9188C68.0355 13.9188 67.9386 13.9331 67.8479 13.9621C67.8359 13.9621 67.8209 13.965 67.8026 13.9709C67.8026 13.9767 67.7997 13.9797 67.7939 13.9797H67.7847C67.7785 13.9856 67.7726 13.9881 67.7664 13.9881H67.7573C67.7535 13.9923 67.7506 13.9948 67.7494 13.9961L67.7485 13.9969C67.7365 13.9969 67.7273 13.9998 67.7211 14.0057C67.7152 14.0116 67.709 14.0145 67.7032 14.0145C67.7032 14.0145 67.7028 14.0145 67.7019 14.0154L67.694 14.0229C67.6878 14.0229 67.682 14.0259 67.6757 14.0317C67.6637 14.0376 67.6487 14.0464 67.6304 14.0578L67.5763 14.0926H67.5672L67.5127 14.1451C67.3738 14.2437 67.2681 14.3713 67.1953 14.5278L62.2192 25.0537C62.1106 25.3035 62.1031 25.5457 62.1967 25.7807C62.2903 26.0158 62.4641 26.1916 62.7179 26.3075C62.9716 26.412 63.2224 26.4191 63.4703 26.3293C63.7178 26.2395 63.902 26.0724 64.023 25.8286L68.1382 17.1314L72.253 25.8286C72.3741 26.0724 72.5567 26.2395 72.8016 26.3293Z" fill="white"/>
<path d="M68.9763 25.8248C69.2433 25.8248 69.4708 25.7413 69.6584 25.5738C69.846 25.4063 69.94 25.2078 69.94 24.9782C69.94 24.7432 69.846 24.5421 69.6584 24.3751C69.4708 24.2076 69.2433 24.1241 68.9763 24.1241H66.7078C66.4403 24.1241 66.2116 24.2076 66.0211 24.3751C65.8306 24.5421 65.7354 24.7432 65.7354 24.9782C65.7354 25.2078 65.8306 25.4063 66.0211 25.5738C66.2116 25.7413 66.4403 25.8248 66.7078 25.8248H68.9763Z" fill="white"/>
<path d="M43.9979 26.3918C44.2816 26.3801 44.5186 26.2814 44.7087 26.0959C44.8988 25.91 44.994 25.6837 44.994 25.4168C44.994 25.1499 44.8988 24.9253 44.7087 24.7423C44.5186 24.5597 44.2816 24.4623 43.9979 24.4506V24.4334C43.1769 24.4334 42.4298 24.2403 41.7569 23.8546C41.0835 23.4684 40.5478 22.9522 40.1497 22.305C39.7513 21.6582 39.552 20.9429 39.552 20.1597C39.552 19.3702 39.7513 18.6521 40.1497 18.0053C40.5478 17.3581 41.0835 16.8431 41.7569 16.4603C42.4298 16.0771 43.1769 15.8857 43.9979 15.8857C44.982 15.8857 45.86 16.1644 46.6328 16.7213C46.82 16.8724 47.0404 16.9476 47.2937 16.9476C47.5715 16.9476 47.8115 16.8519 48.0137 16.6605C48.2158 16.4691 48.3169 16.237 48.3169 15.9641C48.3169 15.6217 48.163 15.3488 47.8552 15.1461C47.312 14.757 46.7127 14.4552 46.058 14.2408C45.4029 14.0259 44.7162 13.9188 43.9979 13.9188C42.8025 13.9188 41.7132 14.2 40.7291 14.7629C39.745 15.3257 38.9618 16.0787 38.3791 17.0219C37.7968 17.9646 37.5057 19.0105 37.5057 20.1597C37.5057 21.3085 37.7968 22.3545 38.3791 23.2976C38.9618 24.2403 39.745 24.992 40.7291 25.5519C41.7132 26.1119 42.8025 26.3918 43.9979 26.3918Z" fill="white"/>
<path d="M47.3616 26.3918C47.6233 26.3918 47.8479 26.2949 48.0354 26.1005C48.223 25.9062 48.3166 25.6707 48.3166 25.3941V20.0187C48.3166 19.7421 48.223 19.5066 48.0354 19.3127C47.8479 19.1184 47.6204 19.0214 47.3529 19.0214H45.0761C44.8087 19.0214 44.5812 19.1184 44.3936 19.3127C44.206 19.5066 44.1124 19.7421 44.1124 20.0187C44.1124 20.2953 44.206 20.5308 44.3936 20.7247C44.5812 20.919 44.8087 21.016 45.0761 21.016H46.3979V25.3941C46.3979 25.6707 46.4915 25.9062 46.6791 26.1005C46.8671 26.2949 47.0942 26.3918 47.3616 26.3918Z" fill="white"/>
<path d="M34.2059 26.3918C34.4515 26.3918 34.6624 26.2965 34.8386 26.106C35.0148 25.9159 35.1029 25.6879 35.1029 25.4223V14.888C35.1029 14.6168 35.0148 14.3877 34.8386 14.2C34.6624 14.0124 34.4515 13.9188 34.2059 13.9188C33.955 13.9188 33.7414 14.0124 33.5652 14.2C33.3891 14.3877 33.301 14.6168 33.301 14.888V25.4223C33.301 25.6879 33.3891 25.9159 33.5652 26.106C33.7414 26.2965 33.955 26.3918 34.2059 26.3918Z" fill="white"/>
<path d="M24.5956 26.3918C24.8411 26.3918 25.0521 26.2965 25.2283 26.106C25.4044 25.9159 25.4925 25.6879 25.4925 25.4223V14.888C25.4925 14.6168 25.4044 14.3877 25.2283 14.2C25.0521 14.0124 24.8411 13.9188 24.5956 13.9188C24.3446 13.9188 24.1311 14.0124 23.9549 14.2C23.7787 14.3877 23.6906 14.6168 23.6906 14.888V25.4223C23.6906 25.6879 23.7787 25.9159 23.9549 26.106C24.1311 26.2965 24.3446 26.3918 24.5956 26.3918Z" fill="white"/>
<path d="M34.612 25.7323C34.8001 25.5833 34.8821 25.3659 34.858 25.08C34.8337 24.7942 34.7108 24.5264 34.4889 24.2767L25.685 14.3732C25.4584 14.118 25.1992 13.956 24.9075 13.8864C24.6158 13.8171 24.3759 13.857 24.1877 14.006C23.9955 14.1579 23.9103 14.3758 23.932 14.6591C23.9538 14.9424 24.078 15.2114 24.3047 15.4662L33.1086 25.3701C33.3304 25.6198 33.5884 25.7806 33.8825 25.8528C34.1766 25.9245 34.4198 25.8847 34.612 25.7323Z" fill="white"/>
<path d="M59.2941 15.6196C59.5803 15.6196 59.8244 15.5369 60.0266 15.3715C60.2283 15.2065 60.3294 15.0068 60.3294 14.773C60.3294 14.5388 60.2283 14.3381 60.0266 14.1702C59.8244 14.0024 59.5803 13.9188 59.2941 13.9188H52.3552C52.069 13.9188 51.8249 14.0024 51.6232 14.1702C51.421 14.3381 51.3199 14.5388 51.3199 14.773C51.3199 15.0068 51.421 15.2065 51.6232 15.3715C51.8249 15.5369 52.069 15.6196 52.3552 15.6196H59.2941Z" fill="white"/>
<path d="M59.2941 26.3918C59.5803 26.3918 59.8244 26.2957 60.0266 26.1043C60.2283 25.9125 60.3294 25.6808 60.3294 25.4097C60.3294 25.1322 60.2283 24.898 60.0266 24.7062C59.8244 24.5144 59.5803 24.4187 59.2941 24.4187H53.437V21.0298H54.8549C55.1469 21.0298 55.3956 20.9312 55.6007 20.7335C55.8062 20.5358 55.9085 20.3012 55.9085 20.03C55.9085 19.7526 55.8062 19.5154 55.6007 19.3178C55.3956 19.1201 55.1469 19.0214 54.8549 19.0214H52.3739C52.0815 19.0214 51.8328 19.1201 51.6277 19.3178C51.4227 19.5154 51.3199 19.7526 51.3199 20.03V25.4097C51.3199 25.6808 51.421 25.9125 51.6232 26.1043C51.8249 26.2957 52.069 26.3918 52.3552 26.3918H59.2941Z" fill="white"/>
<path d="M1.92872 26.3918C2.22332 26.3918 2.47404 26.2957 2.68088 26.1043C2.88772 25.9125 2.99112 25.6829 2.99112 25.4155V21.1356L5.84934 21.1184C6.59527 21.1184 7.22831 21.0051 7.74855 20.7784C8.26884 20.5518 8.68722 20.2584 9.00374 19.8982C9.32026 19.5377 9.54748 19.1486 9.6854 18.7301C9.82329 18.3117 9.88597 17.9079 9.87345 17.5184C9.89853 16.8968 9.7324 16.2722 9.37512 15.6443C9.3626 15.633 9.3532 15.6183 9.34692 15.6011C9.32812 15.5835 9.31244 15.5688 9.29992 15.5574C9.1056 15.2552 8.85488 14.9849 8.54776 14.7465C8.27824 14.485 7.96013 14.2831 7.59345 14.1409C7.22677 13.9986 6.74571 13.9272 6.15022 13.9272C6.04994 13.9213 5.94966 13.9188 5.84934 13.9188V13.9272H4.78694L2.97232 13.9188H1.92872C1.63412 13.9188 1.38339 14.0145 1.17655 14.2063C0.969713 14.3982 0.866272 14.6277 0.866272 14.8947C0.866272 15.1679 0.971252 15.4047 1.18125 15.6053C1.39121 15.8059 1.64352 15.9058 1.93812 15.9058L3.13217 15.8974H5.84934C6.36962 15.8974 6.79271 16.0615 7.11863 16.3898C7.44459 16.718 7.60755 17.0999 7.60755 17.536H7.61695C7.60439 17.9835 7.43673 18.3671 7.11393 18.6865C6.79113 19.0059 6.37274 19.1658 5.85874 19.1658C5.66446 19.1658 5.30406 19.1646 4.77754 19.1616C4.25101 19.1587 3.79657 19.157 3.41425 19.157H3.14157L1.94752 19.1486C1.6404 19.1486 1.38023 19.259 1.16715 19.4798C0.972833 19.6657 0.875672 19.8894 0.875672 20.1509V25.4155C0.875672 25.6829 0.979113 25.9125 1.18595 26.1043C1.39279 26.2957 1.6404 26.3918 1.92872 26.3918Z" fill="white"/>
<path d="M20.5457 26.3293C20.7904 26.4191 21.0427 26.412 21.3026 26.3075C21.5563 26.1916 21.7301 26.0158 21.8237 25.7807C21.9174 25.5457 21.9098 25.3035 21.8011 25.0537L16.825 14.5278C16.7524 14.383 16.6527 14.258 16.5258 14.1539C16.4775 14.1132 16.4261 14.0754 16.3718 14.0405H16.3537C16.3355 14.0288 16.3144 14.0175 16.2902 14.0057C16.2902 14.0057 16.2901 14.0057 16.2899 14.0053L16.2812 13.9969H16.2721C16.266 13.9969 16.263 13.994 16.263 13.9881C16.2389 13.9826 16.2117 13.9738 16.1814 13.9621H16.1723C16.0817 13.9331 15.9851 13.9188 15.8823 13.9188C15.7796 13.9188 15.6829 13.9331 15.5923 13.9621C15.5802 13.9621 15.5651 13.965 15.547 13.9709C15.547 13.9767 15.5439 13.9797 15.5379 13.9797H15.5288C15.5228 13.9856 15.5168 13.9881 15.5107 13.9881H15.5016C15.4956 13.994 15.4926 13.9969 15.4926 13.9969C15.4805 13.9969 15.4714 13.9998 15.4654 14.0057C15.4593 14.0116 15.4533 14.0145 15.4473 14.0145C15.4473 14.0145 15.4442 14.0175 15.4382 14.0229C15.4322 14.0229 15.4261 14.0259 15.4201 14.0317C15.408 14.0376 15.3929 14.0464 15.3747 14.0578L15.3204 14.0926H15.3113L15.2569 14.1451C15.1179 14.2437 15.0122 14.3713 14.9397 14.5278L9.96359 25.0537C9.85482 25.3035 9.84725 25.5457 9.94092 25.7807C10.0346 26.0158 10.2083 26.1916 10.4621 26.3075C10.7159 26.412 10.9666 26.4191 11.2144 26.3293C11.4621 26.2395 11.6464 26.0724 11.7673 25.8286L15.8823 17.1314L19.9973 25.8286C20.1182 26.0724 20.301 26.2395 20.5457 26.3293Z" fill="white"/>
<path d="M16.7206 26.3918C16.9878 26.3918 17.2153 26.3078 17.4029 26.1408C17.5905 25.9733 17.6844 25.7748 17.6844 25.5452C17.6844 25.3101 17.5905 25.1091 17.4029 24.9416C17.2153 24.7746 16.9878 24.6906 16.7206 24.6906H14.4521C14.1849 24.6906 13.956 24.7746 13.7656 24.9416C13.5751 25.1091 13.4799 25.3101 13.4799 25.5452C13.4799 25.7748 13.5751 25.9733 13.7656 26.1408C13.956 26.3078 14.1849 26.3918 14.4521 26.3918H16.7206Z" fill="white"/>
<path d="M0 0.58784L1.79681 5.33578L3.59362 0.58784H3.04792L1.79681 4.00609L0.545698 0.58784H0ZM5.93887 4.13369C5.87898 4.268 5.77915 4.40903 5.65271 4.51648C5.49299 4.65079 5.31331 4.71794 5.08705 4.71794C4.6079 4.71794 4.21526 4.34859 4.20861 3.77104H6.35812C6.37143 3.40168 6.27161 2.97188 6.09859 2.72341C5.93221 2.48164 5.59282 2.21302 5.05377 2.21302C4.22192 2.21302 3.71615 2.85772 3.71615 3.69045C3.71615 4.72466 4.41491 5.14774 5.08039 5.14774C5.4331 5.14774 5.74588 5.03358 5.99876 4.80525C6.13851 4.67765 6.2583 4.50976 6.33816 4.3553L5.93887 4.13369ZM4.24188 3.36811C4.31509 2.95174 4.64783 2.64282 5.05377 2.64282C5.45972 2.64282 5.78581 2.93159 5.86567 3.36811H4.24188ZM7.09315 5.06716H7.5723V3.59644C7.5723 3.13977 7.65216 2.95174 7.73202 2.84429C7.80522 2.75027 7.92501 2.66968 8.118 2.66968C8.1912 2.66968 8.29103 2.68983 8.39746 2.7637L8.62377 2.32718C8.50398 2.26674 8.34426 2.21302 8.19786 2.21302C7.82519 2.21302 7.61884 2.50851 7.5723 2.58238V2.28017H7.09315V5.06716ZM9.06228 2.28017V5.06716H9.54143V2.28017H9.06228ZM8.96246 1.22582C8.96246 1.41386 9.11552 1.56832 9.30186 1.56832C9.48819 1.56832 9.64125 1.41386 9.64125 1.22582C9.64125 1.03778 9.48819 0.883325 9.30186 0.883325C9.11552 0.883325 8.96246 1.03778 8.96246 1.22582ZM11.6178 2.72341V2.28017H10.939V1.23254C10.939 1.09151 10.9457 0.923618 11.0322 0.796021C11.1121 0.67514 11.2651 0.581121 11.5313 0.581121C11.7975 0.581121 11.9505 0.67514 12.0304 0.796021C12.1169 0.930334 12.1236 1.12509 12.1236 1.23254V1.3467H12.6027V1.23254C12.6027 1.01764 12.5961 0.749014 12.443 0.500536C12.2101 0.131177 11.7642 0.0908813 11.5313 0.0908813C11.0122 0.0908813 10.746 0.312499 10.6196 0.500536C10.4798 0.702005 10.4599 0.930334 10.4599 1.23254V2.28017H10.1937V2.72341H10.4599V5.06716H10.939V2.72341H11.6178ZM12.1236 2.28017V5.06716H12.6027V2.28017H12.1236ZM15.5572 4.13369C15.4973 4.268 15.3975 4.40903 15.271 4.51648C15.1113 4.65079 14.9316 4.71794 14.7054 4.71794C14.2262 4.71794 13.8336 4.34859 13.8269 3.77104H15.9765C15.9898 3.40168 15.8899 2.97188 15.7169 2.72341C15.5505 2.48164 15.2112 2.21302 14.6721 2.21302C13.8403 2.21302 13.3345 2.85772 13.3345 3.69045C13.3345 4.72466 14.0332 5.14774 14.6987 5.14774C15.0514 5.14774 15.3642 5.03358 15.6171 4.80525C15.7568 4.67765 15.8766 4.50976 15.9565 4.3553L15.5572 4.13369ZM13.8602 3.36811C13.9334 2.95174 14.2662 2.64282 14.6721 2.64282C15.0781 2.64282 15.4041 2.93159 15.484 3.36811H13.8602ZM18.8277 2.6764C18.7013 2.50851 18.4151 2.21302 17.8827 2.21302C17.1773 2.21302 16.5385 2.70997 16.5385 3.67031C16.5385 4.65079 17.184 5.14774 17.8827 5.14774C18.3685 5.14774 18.668 4.88583 18.8277 4.67765V5.06716H19.3069V0.171469H18.8277V2.6764ZM17.936 2.64282C18.3619 2.64282 18.8543 2.95845 18.8543 3.67702C18.8543 4.22771 18.5216 4.71794 17.936 4.71794C17.3637 4.71794 17.0309 4.268 17.0309 3.67031C17.0309 2.99203 17.4635 2.64282 17.936 2.64282ZM23.8838 2.6764C23.7574 2.50851 23.4712 2.21302 22.9388 2.21302C22.2334 2.21302 21.5946 2.70997 21.5946 3.67031C21.5946 4.65079 22.2401 5.14774 22.9388 5.14774C23.4246 5.14774 23.7241 4.88583 23.8838 4.67765V5.06716H24.363V2.28017H23.8838V2.6764ZM22.9921 2.64282C23.418 2.64282 23.9105 2.95845 23.9105 3.67702C23.9105 4.22771 23.5777 4.71794 22.9921 4.71794C22.4198 4.71794 22.087 4.268 22.087 3.67031C22.087 2.99203 22.5196 2.64282 22.9921 2.64282ZM26.8011 2.71669C26.5815 2.23988 26.1889 2.21302 26.0425 2.21302C25.5766 2.21302 25.2372 2.50179 25.2372 2.99203C25.2372 3.13306 25.2572 3.26737 25.3637 3.40168C25.4901 3.55614 25.7031 3.66359 26.0358 3.81134C26.2953 3.9255 26.4817 4.0128 26.4817 4.27471C26.4817 4.4829 26.3419 4.71794 26.0291 4.71794C25.6831 4.71794 25.5234 4.40903 25.4701 4.26128L25.0575 4.43589C25.2905 5.13431 25.9094 5.14774 26.0225 5.14774C26.5549 5.14774 26.9741 4.81868 26.9741 4.23442C26.9741 4.07996 26.9475 3.93222 26.8277 3.78447C26.7213 3.65016 26.5349 3.52256 26.1356 3.35467C25.8228 3.22036 25.6898 3.15992 25.6898 2.95845C25.6898 2.74355 25.8495 2.64282 26.0225 2.64282C26.2022 2.64282 26.3419 2.7637 26.4085 2.92488L26.8011 2.71669ZM30.1349 2.72341V2.28017H29.6558V1.27283H29.1766V2.28017H28.8838V2.72341H29.1766V5.06716H29.6558V2.72341H30.1349ZM30.5866 5.06716H31.0657V3.60987C31.0657 3.4084 31.079 3.07933 31.2654 2.85772C31.4051 2.68983 31.5848 2.64282 31.7512 2.64282C31.9641 2.64282 32.1105 2.72341 32.2037 2.84429C32.3168 2.99203 32.3301 3.18678 32.3301 3.35467V5.06716H32.8093V3.34124C32.8093 3.03232 32.7893 2.80399 32.6496 2.59581C32.4832 2.34733 32.1837 2.21302 31.8576 2.21302C31.3984 2.21302 31.1522 2.48836 31.0657 2.60252V0.171469H30.5866V5.06716ZM35.6974 4.13369C35.6375 4.268 35.5377 4.40903 35.4113 4.51648C35.2514 4.65079 35.0717 4.71794 34.8454 4.71794C34.3663 4.71794 33.9736 4.34859 33.967 3.77104H36.1167C36.13 3.40168 36.0302 2.97188 35.8572 2.72341C35.6908 2.48164 35.3514 2.21302 34.8121 2.21302C33.9803 2.21302 33.4745 2.85772 33.4745 3.69045C33.4745 4.72466 34.1733 5.14774 34.8388 5.14774C35.1915 5.14774 35.5044 5.03358 35.7573 4.80525C35.8971 4.67765 36.0169 4.50976 36.0967 4.3553L35.6974 4.13369ZM34.0002 3.36811C34.0734 2.95174 34.4062 2.64282 34.8121 2.64282C35.2181 2.64282 35.5444 2.93159 35.6242 3.36811H34.0002ZM39.3763 2.72341V2.28017H38.8972V1.27283H38.418V2.28017H38.1252V2.72341H38.418V5.06716H38.8972V2.72341H39.3763ZM41.1191 5.14774C41.9576 5.14774 42.5831 4.52991 42.5831 3.68374C42.5831 2.83757 41.9642 2.21302 41.1191 2.21302C40.2739 2.21302 39.655 2.83757 39.655 3.68374C39.655 4.52991 40.2805 5.14774 41.1191 5.14774ZM41.1191 2.64282C41.6248 2.64282 42.0907 2.99875 42.0907 3.68374C42.0907 4.36202 41.6182 4.71794 41.1191 4.71794C40.6266 4.71794 40.1474 4.36873 40.1474 3.68374C40.1474 3.00546 40.6133 2.64282 41.1191 2.64282ZM43.7972 4.67765C44.0035 4.94627 44.3163 5.14774 44.7622 5.14774C45.6007 5.14774 46.0865 4.45604 46.0865 3.69045C46.0865 2.93831 45.6073 2.21302 44.7422 2.21302C44.5426 2.21302 44.1233 2.26003 43.7972 2.66968V2.28017H43.3181V6.61175H43.7972V4.67765ZM44.6956 4.71794C44.13 4.71794 43.7706 4.25457 43.7706 3.68374C43.7706 3.01218 44.2431 2.64282 44.689 2.64282C45.1348 2.64282 45.594 3.00546 45.594 3.69045C45.594 4.24785 45.2546 4.71794 44.6956 4.71794ZM50.4903 2.6764C50.2707 2.38762 49.9513 2.21302 49.5453 2.21302C49.1727 2.21302 48.8333 2.36076 48.6004 2.58909C48.4007 2.79056 48.2011 3.12634 48.2011 3.67031C48.2011 4.23442 48.414 4.58363 48.6004 4.77167C48.8133 4.98657 49.1394 5.14774 49.5453 5.14774C50.0311 5.14774 50.3306 4.88583 50.4903 4.67765V5.08059C50.4903 5.31563 50.477 5.56411 50.3373 5.79244C50.1775 6.06107 49.9446 6.18195 49.6052 6.18195C49.3923 6.18195 49.1394 6.13494 48.9398 5.91332C48.82 5.77901 48.7268 5.57083 48.7268 5.33578H48.2543C48.2543 5.74543 48.4273 6.04763 48.6137 6.23567C48.8 6.42371 49.1261 6.61175 49.5986 6.61175C50.1177 6.61175 50.497 6.3767 50.7033 6.09464C50.9695 5.732 50.9695 5.3022 50.9695 5V2.28017H50.4903V2.6764ZM49.5986 2.64282C49.8448 2.64282 50.0711 2.73684 50.2241 2.8913C50.3972 3.05919 50.5169 3.34796 50.5169 3.67702C50.5169 4.00609 50.3905 4.30158 50.2042 4.4829C50.0511 4.63736 49.8515 4.71794 49.5986 4.71794C49.3457 4.71794 49.1594 4.63064 49.0063 4.48961C48.7401 4.24114 48.6935 3.91207 48.6935 3.67031C48.6935 3.44197 48.7401 3.14649 48.973 2.90473C49.1061 2.77041 49.3058 2.64282 49.5986 2.64282ZM51.877 0.171469V5.06716H52.3562V0.171469H51.877ZM54.5523 5.14774C55.3908 5.14774 56.0163 4.52991 56.0163 3.68374C56.0163 2.83757 55.3974 2.21302 54.5523 2.21302C53.7071 2.21302 53.0882 2.83757 53.0882 3.68374C53.0882 4.52991 53.7138 5.14774 54.5523 5.14774ZM54.5523 2.64282C55.058 2.64282 55.5239 2.99875 55.5239 3.68374C55.5239 4.36202 55.0514 4.71794 54.5523 4.71794C54.0598 4.71794 53.5807 4.36873 53.5807 3.68374C53.5807 3.00546 54.0465 2.64282 54.5523 2.64282ZM57.23 4.67765C57.4363 4.94627 57.7491 5.14774 58.195 5.14774C59.0335 5.14774 59.5193 4.45604 59.5193 3.69045C59.5193 2.93831 59.0401 2.21302 58.175 2.21302C57.9754 2.21302 57.5561 2.26003 57.23 2.66968V0.171469H56.7509V5.06716H57.23V4.67765ZM58.1284 4.71794C57.5628 4.71794 57.2034 4.25457 57.2034 3.68374C57.2034 3.01218 57.6759 2.64282 58.1218 2.64282C58.5676 2.64282 59.0268 3.00546 59.0268 3.69045C59.0268 4.24785 58.6874 4.71794 58.1284 4.71794ZM62.3701 2.6764C62.2436 2.50851 61.9575 2.21302 61.4251 2.21302C60.7197 2.21302 60.0808 2.70997 60.0808 3.67031C60.0808 4.65079 60.7263 5.14774 61.4251 5.14774C61.9109 5.14774 62.2103 4.88583 62.3701 4.67765V5.06716H62.8492V2.28017H62.3701V2.6764ZM61.4783 2.64282C61.9042 2.64282 62.3967 2.95845 62.3967 3.67702C62.3967 4.22771 62.0639 4.71794 61.4783 4.71794C60.906 4.71794 60.5732 4.268 60.5732 3.67031C60.5732 2.99203 61.0058 2.64282 61.4783 2.64282ZM63.7568 0.171469V5.06716H64.2359V0.171469H63.7568ZM66.588 4.9127L66.974 5.1746L69.942 0.58784H66.6812V1.0445H69.1102L66.588 4.9127ZM71.2085 0.547546C70.6695 0.547546 70.2436 0.977345 70.2436 1.52131C70.2436 2.06528 70.6695 2.49507 71.2085 2.49507C71.7476 2.49507 72.1735 2.06528 72.1735 1.52131C72.1735 0.977345 71.7476 0.547546 71.2085 0.547546ZM71.2085 2.12571C70.8958 2.12571 70.6429 1.85709 70.6429 1.52131C70.6429 1.18553 70.8958 0.916903 71.2085 0.916903C71.5346 0.916903 71.7742 1.19224 71.7742 1.52131C71.7742 1.85038 71.5346 2.12571 71.2085 2.12571ZM70.9623 5L71.2218 5.15446L73.8106 0.648279L73.551 0.500536L70.9623 5ZM73.5643 3.16664C73.0253 3.16664 72.5994 3.59644 72.5994 4.1404C72.5994 4.68437 73.0253 5.11416 73.5643 5.11416C74.1034 5.11416 74.5293 4.68437 74.5293 4.1404C74.5293 3.59644 74.1034 3.16664 73.5643 3.16664ZM73.5643 4.74481C73.2516 4.74481 72.9987 4.47618 72.9987 4.1404C72.9987 3.80462 73.2516 3.53599 73.5643 3.53599C73.8904 3.53599 74.13 3.81134 74.13 4.1404C74.13 4.46947 73.8904 4.74481 73.5643 4.74481Z" fill="white"/>
</svg>
